<?xml version="1.0" encoding="utf-8"?>
<!-- Generator: Adobe Illustrator 24.0.2, SVG Export Plug-In . SVG Version: 6.00 Build 0)  -->
<svg version="1.1" id="bold" xmlns="http://www.w3.org/2000/svg" xmlns:xlink="http://www.w3.org/1999/xlink" x="0px" y="0px"
	 viewBox="0 0 512 512" style="enable-background:new 0 0 512 512;" xml:space="preserve">
<style type="text/css">
	.st0{fill:#EEEEEE;}
</style>
<path class="st0" d="M341.3,192H170.7c-11.7,0-21.3-9.6-21.3-21.3v0c0-11.7,9.6-21.3,21.3-21.3h170.7c11.7,0,21.3,9.6,21.3,21.3v0
	C362.7,182.4,353.1,192,341.3,192z"/>
<path class="st0" d="M341.3,277.3H170.7c-11.7,0-21.3-9.6-21.3-21.3v0c0-11.7,9.6-21.3,21.3-21.3h170.7c11.7,0,21.3,9.6,21.3,21.3v0
	C362.7,267.7,353.1,277.3,341.3,277.3z"/>
<path class="st0" d="M341.3,362.7H170.7c-11.7,0-21.3-9.6-21.3-21.3v0c0-11.7,9.6-21.3,21.3-21.3h170.7c11.7,0,21.3,9.6,21.3,21.3v0
	C362.7,353.1,353.1,362.7,341.3,362.7z"/>
</svg>
