<svg height="512pt" viewBox="0 0 512 512" width="512pt" xmlns="http://www.w3.org/2000/svg"><path d="m512 256c0 141.386719-114.613281 256-256 256s-256-114.613281-256-256 114.613281-256 256-256 256 114.613281 256 256zm0 0" fill="#4a7aff"/><path d="m512 256c0-3-.070312-5.984375-.171875-8.960938l-130.457031-130.453124-262.769532 266.980468 128.253907 128.253906c3.035156.105469 6.082031.179688 9.144531.179688 141.386719 0 256-114.613281 256-256zm0 0" fill="#0053bf"/><path d="m443.5 256c0 103.554688-83.945312 187.5-187.5 187.5s-187.5-83.945312-187.5-187.5 83.945312-187.5 187.5-187.5 187.5 83.945312 187.5 187.5zm0 0" fill="#ffe000"/><path d="m256 68.5c-.0625 0-.128906.003906-.191406.003906v374.992188c.0625 0 .128906.003906.191406.003906 103.554688 0 187.5-83.949219 187.5-187.5 0-103.554688-83.945312-187.5-187.5-187.5zm0 0" fill="#ffc200"/><path d="m223.753906 209.203125h64.496094v172.140625h-64.496094zm0 0" fill="#414952"/><path d="m255.808594 209.203125h32.441406v172.140625h-32.441406zm0 0" fill="#23272b"/><path d="m223.753906 114.773438h64.496094v64.496093h-64.496094zm0 0" fill="#414952"/><path d="m255.808594 114.773438h32.441406v64.496093h-32.441406zm0 0" fill="#23272b"/></svg>